<?xml version="1.0" encoding="utf-8"?>
<!-- Generator: Adobe Illustrator 16.0.0, SVG Export Plug-In . SVG Version: 6.00 Build 0)  -->
<!DOCTYPE svg PUBLIC "-//W3C//DTD SVG 1.1//EN" "http://www.w3.org/Graphics/SVG/1.1/DTD/svg11.dtd">
<svg version="1.1" id="Layer_1" xmlns="http://www.w3.org/2000/svg" xmlns:xlink="http://www.w3.org/1999/xlink" x="0px" y="0px"
	 width="300px" height="300px" viewBox="0 0 300 300" style="enable-background:new 0 0 300 300;" xml:space="preserve">
<g id="Restricted">
</g>
<g id="Help">
</g>
<path d="M294.206,134.844c-0.421-3.999-7.576-9.775-8.412-13.708c-0.835-3.932,3.352-12.119,2.109-15.942
	c-1.243-3.824-9.441-7.987-11.076-11.661c-1.635-3.672,0.756-12.551-1.254-16.032c-2.01-3.483-10.894-5.849-13.259-9.103
	c-2.363-3.252-1.869-12.434-4.56-15.421c-2.69-2.989-11.874-3.456-14.86-6.147c-2.988-2.69-4.413-11.773-7.666-14.137
	c-3.252-2.363-12.332-0.914-15.813-2.923c-3.483-2.01-6.767-10.599-10.441-12.233c-3.673-1.635-12.252,1.671-16.074,0.429
	c-3.824-1.243-8.823-8.96-12.754-9.796c-3.934-0.836-11.636,4.182-15.635,3.762C160.514,11.51,154.021,5,150,5
	s-10.514,6.51-14.511,6.931c-3.999,0.42-11.703-4.598-15.637-3.762c-3.932,0.836-8.929,8.554-12.752,9.796
	c-3.824,1.242-12.404-2.065-16.077-0.429c-3.672,1.635-6.958,10.223-10.438,12.233c-3.482,2.011-12.561,0.56-15.814,2.923
	c-3.252,2.364-4.678,11.447-7.666,14.137c-2.988,2.691-12.171,3.158-14.861,6.147c-2.691,2.988-2.197,12.169-4.56,15.421
	c-2.363,3.253-11.249,5.621-13.258,9.103c-2.01,3.481,0.383,12.359-1.252,16.032c-1.635,3.673-9.834,7.836-11.077,11.661
	c-1.243,3.823,2.944,12.011,2.107,15.942c-0.837,3.933-7.988,9.71-8.409,13.708c-0.42,3.998,5.376,11.136,5.376,15.156
	c0,4.021-5.797,11.158-5.376,15.156c0.421,3.999,7.572,9.775,8.409,13.708c0.836,3.932-3.351,12.119-2.107,15.942
	c1.243,3.824,9.442,7.986,11.077,11.66c1.635,3.673-0.757,12.551,1.252,16.033c2.009,3.481,10.895,5.849,13.258,9.102
	c2.363,3.252,1.869,12.434,4.56,15.422c2.69,2.988,11.873,3.458,14.861,6.147c2.987,2.69,4.414,11.772,7.666,14.136
	c3.253,2.363,12.333,0.914,15.814,2.923c3.481,2.01,6.767,10.599,10.438,12.233c3.673,1.636,12.253-1.671,16.077-0.429
	c3.823,1.243,8.82,8.96,12.752,9.796c3.934,0.836,11.638-4.182,15.637-3.761c3.998,0.42,10.491,6.93,14.511,6.93
	s10.514-6.51,14.511-6.93c3.999-0.421,11.701,4.598,15.635,3.761c3.932-0.836,8.93-8.554,12.754-9.796
	c3.822-1.242,12.401,2.064,16.074,0.429c3.674-1.634,6.958-10.223,10.441-12.233c3.481-2.009,12.561-0.561,15.813-2.923
	c3.253-2.364,4.678-11.445,7.666-14.136c2.987-2.69,12.171-3.16,14.86-6.147c2.691-2.988,2.197-12.169,4.56-15.422
	c2.365-3.253,11.249-5.619,13.259-9.102c2.012-3.482-0.381-12.36,1.254-16.033c1.635-3.674,9.833-7.836,11.076-11.66
	c1.243-3.824-2.944-12.01-2.109-15.942c0.835-3.933,7.991-9.709,8.412-13.708c0.419-3.998-5.376-11.135-5.376-15.156
	C288.83,145.979,294.625,138.842,294.206,134.844z M121,140.999v-24.777v-5.589c0-28.289,22.867-42.611,39.564-43.853
	C172.144,65.932,183,67.534,183,67.534v27.366c0,0-12.524-0.14-16.993,0.271C162.061,95.585,156,100.04,156,109.287v12.863v2.486
	l-35,17V140.999z M156,233h-35v-51.086l35-17.032V233z M180.598,146.69l-24.487,12.118L121,175.796v-27.672l35.111-17.053
	l15.791-7.188c0,0,11.207-4.333,16.129,3.672C194.945,138.901,180.598,146.69,180.598,146.69z"/>
</svg>
