<?xml version="1.0" encoding="utf-8"?>
<!-- Generator: Adobe Illustrator 17.1.0, SVG Export Plug-In . SVG Version: 6.00 Build 0)  -->
<!DOCTYPE svg PUBLIC "-//W3C//DTD SVG 1.1//EN" "http://www.w3.org/Graphics/SVG/1.1/DTD/svg11.dtd">
<svg version="1.1" xmlns="http://www.w3.org/2000/svg" xmlns:xlink="http://www.w3.org/1999/xlink" x="0px" y="0px"
	 viewBox="0 0 300 300" style="enable-background:new 0 0 300 300;" xml:space="preserve">
<g id="Layer_1">
	<g id="Restricted">
	</g>
	<g id="Help">
	</g>
</g>
<g id="Layer_4">
	<g>
		<path d="M105.429,90.783C117.355,78.595,132.527,72.5,150.945,72.5c24.645,0,42.667,8.171,54.063,24.511
			c6.294,9.175,9.671,18.383,10.136,27.625h-30.94c-1.969-7.098-4.496-12.456-7.577-16.073c-5.511-6.429-13.68-9.644-24.503-9.644
			c-11.024,0-19.718,4.537-26.081,13.611c-6.362,9.076-9.545,21.917-9.545,38.525c0,16.609,3.357,29.048,10.072,37.319
			c6.715,8.271,15.247,12.405,25.597,12.405c10.613,0,18.703-3.548,24.273-10.648c3.077-3.817,5.633-9.543,7.664-17.177h30.739
			c-2.65,16.14-9.426,29.266-20.323,39.378c-10.9,10.113-24.861,15.169-41.888,15.169c-21.069,0-37.633-6.831-49.691-20.492
			c-12.058-13.728-18.086-32.547-18.086-56.455C84.856,124.703,91.713,104.78,105.429,90.783z"/>
	</g>
	<g>
		<path d="M283,283H17V17h266V283z M43,257h214V43H43V257z"/>
	</g>
</g>
</svg>
