<?xml version="1.0" encoding="utf-8"?>
<!-- Generator: Adobe Illustrator 16.0.0, SVG Export Plug-In . SVG Version: 6.00 Build 0)  -->
<!DOCTYPE svg PUBLIC "-//W3C//DTD SVG 1.1//EN" "http://www.w3.org/Graphics/SVG/1.1/DTD/svg11.dtd">
<svg version="1.1" id="Layer_1" xmlns="http://www.w3.org/2000/svg" xmlns:xlink="http://www.w3.org/1999/xlink" x="0px" y="0px"
	 width="300px" height="300px" viewBox="0 0 300 300" style="enable-background:new 0 0 300 300;" xml:space="preserve">
<g id="Restricted">
</g>
<g id="Help">
	<path style="fill-rule:evenodd;clip-rule:evenodd;" d="M255.515,5c-0.692,0.338-1.256,0.498-1.681,0.836
		c-3.499,2.809-7.08,5.533-10.444,8.498c-23.862,21.024-40.95,46.195-48.155,77.64c-3.975,17.35-2.907,34.882-3.056,52.394
		c-0.017,2.042-0.002,4.082-0.002,7.783c-11.365-15.178-22.054-28.354-31.555-42.34C131.698,67.236,92.498,37.415,44.323,15.447
		c3.035,13.896,4.258,27.473,8.995,39.69c15.15,39.083,41.23,68.426,80.759,84.562c10.255,4.188,20.538,8.307,31.499,12.734
		c-6.48,1.1-12.09,2.038-17.697,3.004c-25.149,4.334-45.302,16.491-59.354,38.093c-12.398,19.061-10.441,39.71,5.827,53.403
		c5.659,4.765,12.59,8.267,19.391,11.355c6.891,3.132,14.334,5.039,21.565,7.493c-4.629,10.04-5.162,19.655,0.878,29.217
		c12.008-6.235,23.664-12.289,36.547-18.976c-0.523,6.835-0.932,12.192-1.359,17.791c1.436,0,2.333,0.247,3.011-0.036
		c15.543-6.523,31.099-13.022,46.569-19.712c6.48-2.802,10.195-8.197,11.427-14.951c1.747-9.587,3.004-19.264,4.409-28.911
		c3.401-23.36-2.973-43.992-17.79-62.082c-3.133-3.825-2.878-6.398,0.513-9.86c13.24-13.517,21.886-29.802,27.59-47.701
		c5.933-18.609,7.65-37.907,8.303-57.254C255.945,37.307,255.515,21.275,255.515,5z M127.209,205.959
		c-8.257,0.05-13.186-4.892-13.329-13.365c-0.15-8.813,4.736-13.877,13.398-13.891c7.716-0.012,13.296,5.663,13.347,13.572
		C140.675,199.885,134.766,205.911,127.209,205.959z"/>
</g>
</svg>
