<?xml version="1.0" encoding="utf-8"?>
<!-- Generator: Adobe Illustrator 16.0.0, SVG Export Plug-In . SVG Version: 6.00 Build 0)  -->
<!DOCTYPE svg PUBLIC "-//W3C//DTD SVG 1.1//EN" "http://www.w3.org/Graphics/SVG/1.1/DTD/svg11.dtd">
<svg version="1.1" id="Layer_1" xmlns="http://www.w3.org/2000/svg" xmlns:xlink="http://www.w3.org/1999/xlink" x="0px" y="0px"
	 width="300px" height="300px" viewBox="0 0 300 300" style="enable-background:new 0 0 300 300;" xml:space="preserve">
<path d="M182.143,164.16c9.914-4.248,18.834-10.195,26.48-17.7c7.504-7.646,13.453-16.567,17.699-26.338
	c4.25-10.337,6.516-21.099,6.516-32.285s-2.125-22.09-6.516-32.285c-4.105-9.912-10.195-18.691-17.699-26.338
	c-7.646-7.646-16.566-13.594-26.338-17.7C172.09,7.124,161.186,5,150,5s-22.09,2.124-32.285,6.514
	c-9.771,4.106-18.691,10.054-26.338,17.7C83.873,36.86,77.783,45.64,73.678,55.552c-4.391,10.195-6.516,21.099-6.516,32.285
	s2.125,21.948,6.516,32.285c4.105,9.771,10.195,18.691,17.699,26.338c7.646,7.505,16.426,13.452,26.338,17.7
	c6.939,2.974,14.16,4.814,21.523,5.806v41.631H80.049v19.824h59.189V295h19.824v-63.579h59.473v-19.824h-59.473v-41.489
	C167.135,169.258,174.779,167.275,182.143,164.16z M86.986,87.837c0-34.834,28.32-63.013,63.014-63.013s63.014,28.179,63.014,63.013
	c0,34.692-28.32,63.013-63.014,63.013S86.986,122.529,86.986,87.837z"/>
<g id="Restricted">
</g>
<g id="Help">
</g>
</svg>
