<?xml version="1.0" encoding="utf-8"?>
<!-- Generator: Adobe Illustrator 16.0.0, SVG Export Plug-In . SVG Version: 6.00 Build 0)  -->
<!DOCTYPE svg PUBLIC "-//W3C//DTD SVG 1.1//EN" "http://www.w3.org/Graphics/SVG/1.1/DTD/svg11.dtd">
<svg version="1.1" id="Layer_1" xmlns="http://www.w3.org/2000/svg" xmlns:xlink="http://www.w3.org/1999/xlink" x="0px" y="0px"
	 width="300px" height="300px" viewBox="0 0 300 300" style="enable-background:new 0 0 300 300;" xml:space="preserve">
<path d="M277.429,5c-39.507,20.674-84.819,27.188-128.433,24.922c17.134,13.452,44.321,27.612,68.535,30.444l-57.349,68.96
	c-14.16-8.921-30.728-13.735-47.72-13.735c-2.69,0-5.522,0.142-8.354,0.425c-12.036,1.133-23.506,4.531-34.126,10.195
	c-10.195,5.522-19.258,12.886-26.621,21.807c-7.505,8.921-13.027,19.116-16.567,30.161c-3.682,11.47-4.956,23.364-3.823,35.4
	c1.982,22.373,12.319,43.047,29.028,58.198C68.566,286.787,89.948,295,112.321,295c2.832,0,5.522-0.142,8.354-0.425
	c12.036-1.133,23.647-4.531,34.126-10.195c10.337-5.522,19.258-12.744,26.763-21.807c7.363-8.921,13.027-18.975,16.567-30.02
	c3.54-11.47,4.814-23.364,3.823-35.542c-1.982-20.391-10.762-39.507-25.063-54.233l57.207-68.96
	c7.363,23.647,25.63,45.312,42.622,61.88C268.083,92.793,263.835,47.056,277.429,5z M164.997,248.979
	c-11.611,14.019-28.037,22.656-46.304,24.355c-2.124,0.142-4.248,0.283-6.372,0.283c-35.542,0-64.712-26.621-67.969-62.021
	c-3.54-37.524,24.214-70.801,61.738-74.199c2.124-0.283,4.248-0.283,6.372-0.283c35.542,0,64.712,26.621,68.11,61.88
	C182.131,217.261,176.75,234.961,164.997,248.979z"/>
<g id="Restricted">
</g>
<g id="Help">
</g>
</svg>
