<?xml version="1.0" encoding="utf-8"?>
<!-- Generator: Adobe Illustrator 16.0.0, SVG Export Plug-In . SVG Version: 6.00 Build 0)  -->
<!DOCTYPE svg PUBLIC "-//W3C//DTD SVG 1.1//EN" "http://www.w3.org/Graphics/SVG/1.1/DTD/svg11.dtd">
<svg version="1.1" id="Layer_1" xmlns="http://www.w3.org/2000/svg" xmlns:xlink="http://www.w3.org/1999/xlink" x="0px" y="0px"
	 width="300px" height="300px" viewBox="0 0 300 300" style="enable-background:new 0 0 300 300;" xml:space="preserve">
<path d="M294.601,141.313c-2.277-24.067-13.242-46.14-31.045-62.231c-17.799-15.95-40.584-25.063-64.367-25.063
	c-2.99,0-5.98,0.285-8.971,0.57c-12.815,1.281-25.205,4.984-36.455,10.965c-1.282,0.57-2.564,1.282-3.703,1.994
	c-14.669-8.544-31.614-13.528-48.845-13.528c-2.992,0-6.123,0.285-8.973,0.57c-12.96,1.281-25.206,4.984-36.456,10.965
	c-11.107,5.839-20.505,13.671-28.622,23.354c-7.975,9.542-13.814,20.364-17.517,32.184c-3.988,12.247-5.556,24.92-4.132,37.88
	c2.137,24.066,13.103,46.14,31.046,62.231c17.657,15.949,40.584,24.778,64.367,24.778c2.99,0,5.982,0,8.973-0.284
	c12.816-1.282,25.205-4.984,36.456-10.965c1.279-0.569,2.421-1.282,3.702-1.994c14.667,8.544,31.614,13.244,48.846,13.244
	c2.989,0,5.979,0,8.971-0.284c12.817-1.282,25.205-4.984,36.457-10.965c10.963-5.839,20.505-13.671,28.479-23.354
	c8.117-9.542,13.956-20.365,17.657-32.184C294.46,166.946,295.74,154.272,294.601,141.313z M173.842,143.45
	c1.707,19.367-4.131,38.449-16.521,53.259c-2.277,2.849-4.841,5.411-7.404,7.69c-12.959-11.962-21.788-28.481-23.64-47.563
	c-2.136-23.782,7.404-45.997,23.925-60.95C163.161,107.848,171.988,124.367,173.842,143.45z M107.765,222.769
	c-2.278,0.285-4.558,0.427-6.836,0.427c-37.88,0-69.066-28.623-72.626-66.361c-3.702-40.158,25.916-75.618,65.933-79.32
	c2.28-0.284,4.699-0.427,6.979-0.427c10.396,0,20.221,2.136,29.191,6.124c-1.852,1.851-3.561,3.702-5.126,5.696
	c-8.117,9.542-13.956,20.364-17.657,32.184c-3.99,12.247-5.412,24.92-4.131,37.88c1.994,22.073,11.394,42.437,26.772,58.102
	C123.286,220.064,115.598,222.057,107.765,222.769z M255.296,196.709c-12.53,14.953-30.047,24.352-49.556,26.06
	c-2.28,0.285-4.558,0.427-6.835,0.427c-10.396,0-20.224-2.136-29.194-6.123c1.852-1.851,3.56-3.703,5.125-5.696
	c8.119-9.542,13.957-20.365,17.66-32.184c3.988-12.247,5.268-24.921,4.129-37.88c-1.992-22.074-11.392-42.437-26.771-58.102
	c6.977-2.991,14.524-4.984,22.357-5.697c2.277-0.284,4.698-0.427,6.977-0.427c37.738,0,69.066,28.624,72.627,66.362
	C273.524,162.816,267.688,181.899,255.296,196.709z"/>
<g id="Restricted">
</g>
<g id="Help">
</g>
</svg>
