<?xml version="1.0" encoding="utf-8"?>
<!-- Generator: Adobe Illustrator 17.1.0, SVG Export Plug-In . SVG Version: 6.00 Build 0)  -->
<!DOCTYPE svg PUBLIC "-//W3C//DTD SVG 1.1//EN" "http://www.w3.org/Graphics/SVG/1.1/DTD/svg11.dtd">
<svg version="1.1" id="Layer_1" xmlns="http://www.w3.org/2000/svg" xmlns:xlink="http://www.w3.org/1999/xlink" x="0px" y="0px"
	 viewBox="0 0 500 500" style="enable-background:new 0 0 500 500;" xml:space="preserve">
<g>
	<rect x="35" y="354.607" style="fill:#EA3362;" width="430" height="30.35"/>
	<path style="fill:#424143;" d="M77.539,225.23c3.781,3.448,7.565,6.892,11.342,10.345c2.255,2.061,4.666,3.988,6.661,6.276
		c0.768,0.881,1.056,2.718,0.75,3.912c-1.857,7.244-3.958,14.425-5.952,21.634c-0.298,1.077-0.462,2.19-0.688,3.287
		c0.245,0.224,0.489,0.448,0.734,0.671c1.349-0.966,2.774-1.843,4.034-2.913c4.654-3.953,9.302-7.916,13.846-11.994
		c1.52-1.364,2.513-1.227,4.006,0.071c5.086,4.42,10.284,8.713,15.503,12.975c0.635,0.519,1.66,0.559,2.505,0.822
		c0.083-0.881,0.414-1.824,0.209-2.632c-1.687-6.637-3.272-13.311-5.309-19.843c-1.169-3.751-0.012-6.109,2.777-8.464
		c4.825-4.074,9.437-8.4,14.117-12.643c0.571-0.517,1.011-1.178,1.986-2.335c-1.872-0.242-3.053-0.516-4.237-0.526
		c-5.8-0.049-11.601-0.081-17.4-0.008c-2.587,0.033-4.112-0.984-4.862-3.521c-1.613-5.456-3.449-10.847-5.044-16.308
		c-0.369-1.262-0.483-2.797-0.13-4.04c3.65-12.858,7.462-25.67,11.121-38.526c0.744-2.613,2.21-3.383,4.821-3.378
		c36.594,0.063,73.19-0.237,109.779,0.176c14.473,0.163,28.561,3.201,40.394,12.461c10.206,7.987,15.559,18.539,15.928,31.599
		c0.232,8.208-0.262,16.204-4.458,23.575c-3.985,7-9.803,11.119-17.877,11.967c-0.99,0.104-1.953,0.471-3.169,1.299
		c13.609,2.377,24.551,8.234,29.843,21.892c0.308-0.139,0.617-0.277,0.925-0.416c0.142-1.341,0.408-2.682,0.409-4.024
		c0.025-31.004,0.021-62.009,0.024-93.013c0.001-5.47,0.006-5.474,5.407-5.475c11.389-0.003,22.779-0.007,34.168-0.002
		c4.405,0.002,4.639,0.224,4.639,4.661c0.005,50.198,0,100.395,0.016,150.593c0,1.4,0.202,2.8,0.31,4.2
		c0.28,0.072,0.561,0.145,0.841,0.217c0.646-0.968,1.448-1.867,1.914-2.916c4.958-11.17,9.837-22.376,14.788-33.549
		c5.721-12.912,11.495-25.8,17.238-38.702c6.299-14.151,12.589-28.306,18.88-42.461c1.233-2.775,0.798-3.467-2.491-3.477
		c-12.866-0.04-25.732-0.014-38.597-0.023c-4.56-0.003-4.64-0.08-4.644-4.563c-0.009-10.018,0.086-20.038-0.055-30.055
		c-0.043-3.065,1.067-3.98,4.054-3.973c33.852,0.078,67.703,0.044,101.555,0.058c3.846,0.002,4.107,0.43,2.563,3.985
		c-13.596,31.309-27.207,62.612-40.804,93.921c-3.858,8.883-7.682,17.781-11.537,26.666c-1.176,2.71,0.471,3.162,2.545,3.176
		c5.378,0.035,10.757,0.014,16.135,0.015c8.647,0.002,17.296,0.085,25.942-0.037c3.023-0.043,4.102,1.108,4.069,4.095
		c-0.108,10.017-0.107,20.037,0.005,30.054c0.032,2.808-0.833,3.934-3.79,3.93c-49.881-0.065-99.762-0.061-149.644-0.016
		c-2.592,0.002-3.577-0.919-3.532-3.512c0.143-8.222,0.15-16.445,0.18-24.669c0.003-0.77-0.202-1.541-1.102-2.539
		c-0.492,0.8-1.09,1.553-1.459,2.406c-8.41,19.447-24.08,27.99-44.371,28.167c-41.547,0.362-83.099,0.087-124.649,0.172
		c-2.989,0.006-4.572-0.749-5.346-3.851c-3.211-12.868-6.636-25.682-10.011-38.509c-0.71-2.698-1.536-5.366-2.308-8.048
		c-0.292-0.035-0.583-0.071-0.875-0.106c-0.455,0.813-1.108,1.575-1.337,2.447c-3.778,14.374-7.535,28.754-11.22,43.152
		c-1.164,4.549-1.406,4.858-6.165,4.859c-16.451,0.004-32.903,0.011-49.354-0.007c-3.948-0.004-4.274-0.418-3.053-4.229
		c6.587-20.562,13.231-41.106,19.819-61.668c2.476-7.727,4.888-15.474,7.234-23.241c0.28-0.928,0.182-2.109-0.117-3.054
		c-6.313-19.882-12.669-39.75-19.048-59.61c-1.126-3.507-2.285-7.011-3.629-10.439c-0.962-2.454-0.504-3.549,2.28-3.541
		c15.818,0.041,31.637,0.042,47.456,0.014c2.215-0.004,3.474,0.831,4.089,3.059c3.001,10.871,5.914,21.773,9.261,32.538
		c1.692,5.442,2.125,10.552,0.017,15.954c-1.411,3.614-2.278,7.449-3.263,11.218c-0.582,2.227-1.89,3.011-4.126,2.978
		c-5.904-0.086-11.811-0.039-17.716-0.01c-1.101,0.005-2.201,0.172-3.302,0.264C77.838,224.492,77.688,224.861,77.539,225.23z
		 M178.342,159.059c-0.651,1.662-1.036,2.466-1.287,3.31c-3.962,13.327-7.908,26.659-11.856,39.99
		c-2.78,9.389-5.64,18.756-8.267,28.187c-0.512,1.839-0.596,4.069-0.067,5.883c5.741,19.726,11.639,39.406,17.505,59.095
		c1.181,3.964,2.409,7.914,3.751,12.313c0.638-0.788,1.217-1.169,1.217-1.551c0-48.144-0.04-96.287-0.109-144.431
		C179.228,161.22,178.84,160.586,178.342,159.059z M223.545,272.337c0,4.42-0.001,8.839,0,13.259c0,1.688,0.234,3.435,2.383,3.357
		c6.167-0.225,12.464,0.045,18.457-1.147c7.981-1.588,12.111-7.633,12.029-15.51c-0.082-7.918-4.364-13.868-12.374-15.271
		c-5.935-1.04-12.131-0.708-18.208-0.664c-0.769,0.006-2.116,1.94-2.181,3.041C223.396,263.7,223.547,268.023,223.545,272.337z
		 M223.553,207.915c0,3.893,0.015,7.785-0.005,11.677c-0.013,2.493,1.196,3.666,3.68,3.638c3.156-0.036,6.33,0.198,9.464-0.066
		c10.806-0.91,16.093-4.305,15.387-16.425c-0.031-0.524-0.005-1.052-0.017-1.578c-0.143-5.825-3.168-10.124-8.844-11.037
		c-5.456-0.878-11.06-0.897-16.607-1.127c-2.244-0.093-3.07,1.471-3.066,3.556C223.554,200.34,223.548,204.128,223.553,207.915z"/>
</g>
</svg>
