<?xml version="1.0" encoding="utf-8"?>
<!-- Generator: Adobe Illustrator 16.0.0, SVG Export Plug-In . SVG Version: 6.00 Build 0)  -->
<!DOCTYPE svg PUBLIC "-//W3C//DTD SVG 1.1//EN" "http://www.w3.org/Graphics/SVG/1.1/DTD/svg11.dtd">
<svg version="1.1" id="Layer_1" xmlns="http://www.w3.org/2000/svg" xmlns:xlink="http://www.w3.org/1999/xlink" x="0px" y="0px"
	 width="500px" height="500px" viewBox="0 0 500 500" style="enable-background:new 0 0 500 500;" xml:space="preserve">
<path style="fill:#EA3362;" d="M370.824,129.19c-33.365-33.369-77.096-50.046-120.827-50.046c-43.727,0-87.458,16.677-120.82,50.046
	c-66.724,66.724-66.724,174.916,0,241.641c33.363,33.361,77.093,50.046,120.82,50.046c43.73,0,87.461-16.685,120.827-50.046
	C437.546,304.106,437.546,195.914,370.824,129.19z M105.83,250.011c0-38.515,14.991-74.711,42.224-101.944
	c27.232-27.228,63.434-42.223,101.944-42.223c29.219,0,57.109,8.652,80.765,24.714L130.551,330.771
	C114.482,307.119,105.83,279.229,105.83,250.011z M351.944,351.955c-27.232,27.228-63.433,42.223-101.947,42.223
	c-29.219,0-57.11-8.656-80.761-24.724l200.185-200.186C407.346,225.324,401.539,302.352,351.944,351.955z"/>
</svg>
