<?xml version="1.0" encoding="utf-8"?>
<!-- Generator: Adobe Illustrator 16.0.0, SVG Export Plug-In . SVG Version: 6.00 Build 0)  -->
<!DOCTYPE svg PUBLIC "-//W3C//DTD SVG 1.1//EN" "http://www.w3.org/Graphics/SVG/1.1/DTD/svg11.dtd">
<svg version="1.1" id="Layer_1" xmlns="http://www.w3.org/2000/svg" xmlns:xlink="http://www.w3.org/1999/xlink" x="0px" y="0px"
	 width="500px" height="500px" viewBox="0 0 500 500" style="enable-background:new 0 0 500 500;" xml:space="preserve">
<g>
	<path style="fill:#424143;" d="M151.948,296.837c-14.433,0-26.175-11.663-26.175-26V120.509H72.061
		c-12.695,0-22.708,10.012-22.708,22.35v157.004c0,12.338,10.013,22.532,22.708,22.532h36.48l1.072,85.654l89.59-85.654h127.403
		l-26.732-25.558H151.948z"/>
	<path style="fill:#EA3362;" d="M428.407,94.951H151.948c-10.789,0-19.241,8.294-19.241,18.883v6.675v150.329
		c0,10.513,8.631,19.065,19.241,19.065h150.707l33.985,32.492l50.847,48.613l1.015-81.105h39.905c10.609,0,19.24-8.552,19.24-19.065
		V113.834C447.647,103.245,439.196,94.951,428.407,94.951z"/>
</g>
</svg>
