<?xml version="1.0" encoding="utf-8"?>
<!-- Generator: Adobe Illustrator 16.0.0, SVG Export Plug-In . SVG Version: 6.00 Build 0)  -->
<!DOCTYPE svg PUBLIC "-//W3C//DTD SVG 1.1//EN" "http://www.w3.org/Graphics/SVG/1.1/DTD/svg11.dtd">
<svg version="1.1" id="Layer_1" xmlns="http://www.w3.org/2000/svg" xmlns:xlink="http://www.w3.org/1999/xlink" x="0px" y="0px"
	 width="500px" height="500px" viewBox="0 0 500 500" style="enable-background:new 0 0 500 500;" xml:space="preserve">
<g>
	<path style="fill:none;" d="M195.24,121.258c6.676,6.753,15.341,10.783,23.182,10.783c3.299,0,7.984-0.739,11.55-4.263
		c7.753-7.666,4.956-23.605-6.117-34.806c-6.678-6.754-15.34-10.787-23.185-10.787c-3.299,0-7.984,0.742-11.548,4.268
		c-4.684,4.628-4.646,11.249-4.21,14.783C185.776,108.194,189.536,115.49,195.24,121.258z"/>
	<path style="fill:none;" d="M298.382,132.231c10.915,0,23.856-3.449,36.447-9.71c26.904-13.38,38.765-32.587,35.11-39.931
		c-1.778-3.581-8.136-5.808-16.58-5.808c-10.912,0-23.856,3.448-36.446,9.711c-26.901,13.381-38.763,32.588-35.112,39.932
		C283.583,130.007,289.938,132.231,298.382,132.231z"/>
	<rect x="105.673" y="167.033" style="fill:#EA3362;" width="123.709" height="103.09"/>
	<rect x="393.296" y="167.033" style="fill:#EA3362;" width="1.031" height="103.09"/>
	<rect x="270.618" y="167.033" style="fill:#EA3362;" width="122.678" height="103.09"/>
	<rect x="105.673" y="407.082" style="fill:#EA3362;" width="123.709" height="1.183"/>
	<rect x="105.673" y="306.205" style="fill:#EA3362;" width="123.709" height="100.876"/>
	<polygon style="fill:#EA3362;" points="270.618,407.082 270.618,408.265 394.327,408.265 394.327,306.205 393.296,306.205 
		393.296,407.082 	"/>
	<rect x="270.618" y="306.205" style="fill:#EA3362;" width="122.678" height="100.876"/>
	<path style="fill:#424143;" d="M181.209,135.13c10.455,10.579,24.019,16.644,37.213,16.644c9.892,0,18.919-3.539,25.419-9.962
		c15.629-15.448,12.955-43.581-5.956-62.711c-10.455-10.578-24.02-16.645-37.215-16.645c-9.89,0-18.918,3.539-25.424,9.965
		c-7.805,7.717-11.417,19.103-9.914,31.239C166.737,115.02,172.375,126.196,181.209,135.13z M189.123,86.453
		c3.564-3.526,8.25-4.268,11.548-4.268c7.845,0,16.507,4.033,23.185,10.787c11.073,11.2,13.87,27.14,6.117,34.806
		c-3.565,3.524-8.25,4.263-11.55,4.263c-7.841,0-16.506-4.03-23.182-10.783c-5.704-5.768-9.464-13.064-10.328-20.022
		C184.477,97.701,184.438,91.081,189.123,86.453z"/>
	<path style="fill:#424143;" d="M298.382,151.963c13.903,0,29.964-4.183,45.233-11.777c35.194-17.503,54.105-46.041,43.989-66.381
		c-5.373-10.801-17.533-16.751-34.245-16.751c-13.899,0-29.965,4.181-45.234,11.774c-35.195,17.505-54.105,46.044-43.99,66.387
		C269.509,146.015,281.668,151.963,298.382,151.963z M316.913,86.493c12.589-6.263,25.534-9.711,36.446-9.711
		c8.444,0,14.802,2.227,16.58,5.808c3.654,7.344-8.207,26.551-35.11,39.931c-12.59,6.262-25.532,9.71-36.447,9.71
		c-8.444,0-14.798-2.224-16.581-5.806C278.15,119.081,290.012,99.875,316.913,86.493z"/>
</g>
</svg>
