<?xml version="1.0" encoding="utf-8"?>
<!-- Generator: Adobe Illustrator 16.0.0, SVG Export Plug-In . SVG Version: 6.00 Build 0)  -->
<!DOCTYPE svg PUBLIC "-//W3C//DTD SVG 1.1//EN" "http://www.w3.org/Graphics/SVG/1.1/DTD/svg11.dtd">
<svg version="1.1" id="Layer_1" xmlns="http://www.w3.org/2000/svg" xmlns:xlink="http://www.w3.org/1999/xlink" x="0px" y="0px"
	 width="500px" height="500px" viewBox="0 0 500 500" style="enable-background:new 0 0 500 500;" xml:space="preserve">
<g>
	<path style="fill:#424143;" d="M306,123c0-17,0-21,0-21h-95.408H111c0,0,0,4,0,21H51v70.578c0,21.244,7.238,39.619,19.375,54.542
		c13.992,17.202,36.015,29.251,64.749,35.794c21.981,28.416,51.566,41.096,51.566,41.096s3.662,16.312-1.222,30.933
		C125.578,375.166,132.799,405,132.799,405h77.793h77.791c0,0,7.045-29.834-52.844-49.057c-4.885-14.621-1.397-30.87-1.397-30.87
		s29.238-12.711,51.22-41.126c28.734-6.543,48.863-18.608,62.852-35.812C360.352,233.215,365,214.822,365,193.578V123H306z
		 M73,193.578V145h38c0,17,0,39.808,0,69.584c0,15.547,2.371,29.273,7.154,41.297C88.588,243.916,73,223.047,73,193.578z
		 M344,193.578c0,29.469-15.588,50.338-45.152,62.303c4.781-12.024,7.152-25.75,7.152-41.297c0-29.776,0-52.584,0-69.584h38V193.578
		z"/>
	<path style="fill:#EA3362;" d="M346.779,286.275c-43.958,0-79.594,35.636-79.594,79.594c0,43.959,35.636,79.595,79.594,79.595
		c43.96,0,79.595-35.636,79.595-79.595C426.374,321.911,390.739,286.275,346.779,286.275z M377.771,408.898l-30.99-16.333
		l-30.992,16.333l5.909-34.56l-25.083-24.469l34.669-5.073l15.497-31.437l15.495,31.437l34.671,5.073l-25.083,24.469
		L377.771,408.898z"/>
</g>
</svg>
