<?xml version="1.0" encoding="utf-8"?>
<!-- Generator: Adobe Illustrator 16.0.0, SVG Export Plug-In . SVG Version: 6.00 Build 0)  -->
<!DOCTYPE svg PUBLIC "-//W3C//DTD SVG 1.1//EN" "http://www.w3.org/Graphics/SVG/1.1/DTD/svg11.dtd">
<svg version="1.1" id="Layer_1" xmlns="http://www.w3.org/2000/svg" xmlns:xlink="http://www.w3.org/1999/xlink" x="0px" y="0px"
	 width="500px" height="500px" viewBox="0 0 500 500" style="enable-background:new 0 0 500 500;" xml:space="preserve">
<g>
	<path style="fill:#424143;" d="M420.099,235.023c-0.489-4.645-8.798-11.352-9.769-15.92c-0.97-4.566,3.893-14.074,2.449-18.515
		c-1.443-4.441-10.964-9.276-12.863-13.543c-1.899-4.265,0.878-14.575-1.457-18.618c-2.334-4.046-12.651-6.793-15.398-10.571
		c-2.744-3.775-2.17-14.439-5.295-17.907c-3.125-3.473-13.789-4.016-17.258-7.14c-3.47-3.125-5.125-13.674-8.903-16.419
		c-3.776-2.746-14.322-1.061-18.364-3.396c-4.046-2.334-7.859-12.308-12.125-14.206c-4.266-1.899-14.229,1.94-18.668,0.499
		c-4.44-1.444-10.246-10.408-14.812-11.377c-4.569-0.973-13.513,4.856-18.157,4.368c-4.643-0.489-12.184-8.049-16.854-8.049
		c-4.669,0-12.209,7.56-16.853,8.049c-4.644,0.488-13.591-5.341-18.16-4.368c-4.565,0.969-10.369,9.933-14.809,11.377
		c-4.441,1.441-14.406-2.399-18.671-0.499c-4.264,1.898-8.08,11.872-12.123,14.206c-4.044,2.335-14.588,0.649-18.366,3.396
		c-3.776,2.745-5.433,13.294-8.902,16.419c-3.471,3.124-14.136,3.667-17.259,7.14c-3.125,3.468-2.552,14.132-5.296,17.907
		c-2.744,3.778-13.063,6.529-15.396,10.571c-2.334,4.043,0.444,14.354-1.455,18.618c-1.898,4.267-11.42,9.102-12.864,13.543
		c-1.443,4.44,3.419,13.948,2.447,18.515c-0.971,4.568-9.277,11.275-9.765,15.92c-0.489,4.645,6.243,12.933,6.243,17.603
		c0,4.669-6.732,12.957-6.243,17.601c0.488,4.646,8.794,11.354,9.765,15.921c0.972,4.565-3.89,14.073-2.447,18.516
		c1.443,4.44,10.965,9.273,12.864,13.54c1.899,4.266-0.879,14.576,1.455,18.619c2.333,4.043,12.653,6.794,15.396,10.571
		c2.744,3.778,2.17,14.44,5.296,17.911c3.124,3.47,13.789,4.016,17.259,7.14c3.469,3.124,5.126,13.67,8.902,16.416
		c3.778,2.743,14.322,1.06,18.366,3.396c4.043,2.334,7.858,12.309,12.123,14.205c4.265,1.9,14.23-1.939,18.671-0.498
		c4.439,1.444,10.243,10.407,14.809,11.378c4.569,0.97,13.516-4.857,18.16-4.368c4.643,0.488,12.184,8.048,16.853,8.048
		c4.67,0,12.21-7.56,16.854-8.048c4.644-0.489,13.588,5.338,18.157,4.368c4.566-0.971,10.372-9.934,14.812-11.378
		c4.439-1.441,14.403,2.397,18.668,0.498c4.267-1.896,8.08-11.871,12.125-14.205c4.042-2.336,14.588-0.652,18.364-3.396
		c3.778-2.746,5.433-13.292,8.903-16.416c3.469-3.126,14.135-3.672,17.258-7.14c3.125-3.471,2.551-14.133,5.295-17.911
		c2.747-3.777,13.063-6.525,15.398-10.571c2.336-4.043-0.442-14.354,1.457-18.619c1.899-4.267,11.419-9.1,12.863-13.54
		c1.444-4.442-3.418-13.948-2.449-18.516c0.971-4.567,9.28-11.275,9.769-15.921c0.487-4.644-6.244-12.932-6.244-17.601
		C413.855,247.956,420.586,239.668,420.099,235.023z M217,242.171v-28.774v-6.491c0-32.853,26.555-49.486,45.947-50.929
		c13.447-0.982,26.053,0.877,26.053,0.877v31.78c0,0-13.867-0.162-19.056,0.316c-4.583,0.482-10.944,5.654-10.944,16.394v14.938
		v2.888l-42,19.743V242.171z M259,349h-42v-59.311l42-19.782V349z M288.16,248.78l-29.41,14.074L217,282.584v-32.137l41.75-19.806
		l18.825-8.349c0,0,13.258-5.029,18.974,4.266C304.579,239.734,288.16,248.78,288.16,248.78z"/>
	<path style="fill:#EA3362;" d="M414.848,229.773c-0.489-4.646-8.798-11.354-9.768-15.921c-0.971-4.565,3.892-14.074,2.448-18.516
		c-1.443-4.44-10.964-9.274-12.863-13.542c-1.899-4.264,0.878-14.574-1.457-18.617c-2.335-4.046-12.651-6.794-15.398-10.571
		c-2.744-3.777-2.17-14.44-5.295-17.909c-3.124-3.472-13.789-4.015-17.258-7.139c-3.471-3.126-5.125-13.673-8.903-16.419
		c-3.776-2.745-14.322-1.06-18.364-3.396c-4.046-2.334-7.859-12.308-12.125-14.205c-4.265-1.899-14.228,1.939-18.668,0.498
		c-4.44-1.444-10.245-10.407-14.812-11.378c-4.569-0.971-13.513,4.857-18.157,4.369c-4.643-0.489-12.184-8.049-16.853-8.049
		c-4.67,0-12.21,7.56-16.854,8.049c-4.644,0.488-13.591-5.34-18.16-4.369c-4.565,0.971-10.369,9.934-14.809,11.378
		c-4.441,1.441-14.406-2.398-18.671-0.498c-4.264,1.897-8.08,11.871-12.123,14.205c-4.044,2.336-14.588,0.65-18.366,3.396
		c-3.776,2.746-5.433,13.293-8.902,16.419c-3.471,3.124-14.135,3.667-17.259,7.139c-3.125,3.469-2.552,14.132-5.296,17.909
		c-2.744,3.777-13.063,6.528-15.396,10.571c-2.334,4.043,0.444,14.354-1.455,18.617c-1.899,4.268-11.421,9.102-12.864,13.542
		c-1.443,4.441,3.419,13.95,2.447,18.516c-0.972,4.567-9.277,11.275-9.766,15.921c-0.488,4.644,6.244,12.932,6.244,17.601
		c0,4.67-6.732,12.958-6.244,17.603c0.489,4.645,8.794,11.353,9.766,15.92c0.972,4.566-3.891,14.074-2.447,18.515
		c1.443,4.441,10.965,9.275,12.864,13.541c1.899,4.267-0.88,14.577,1.455,18.62c2.333,4.042,12.653,6.793,15.396,10.571
		c2.744,3.776,2.171,14.439,5.296,17.91c3.125,3.47,13.789,4.016,17.259,7.14c3.469,3.124,5.126,13.671,8.902,16.416
		c3.778,2.743,14.322,1.061,18.366,3.396c4.043,2.334,7.858,12.309,12.123,14.206c4.265,1.9,14.23-1.94,18.671-0.499
		c4.439,1.444,10.243,10.408,14.809,11.378c4.569,0.97,13.516-4.857,18.16-4.368c4.643,0.488,12.184,8.048,16.854,8.048
		c4.669,0,12.209-7.56,16.853-8.048c4.644-0.489,13.588,5.338,18.157,4.368c4.566-0.97,10.372-9.934,14.812-11.378
		c4.44-1.441,14.403,2.398,18.668,0.499c4.267-1.897,8.08-11.872,12.125-14.206c4.042-2.335,14.588-0.652,18.364-3.396
		c3.778-2.745,5.433-13.292,8.903-16.416c3.469-3.126,14.135-3.671,17.258-7.14c3.125-3.471,2.551-14.134,5.295-17.91
		c2.747-3.778,13.063-6.525,15.398-10.571c2.336-4.043-0.443-14.354,1.457-18.62c1.898-4.266,11.419-9.1,12.863-13.541
		c1.444-4.44-3.419-13.946-2.448-18.515c0.97-4.567,9.279-11.275,9.768-15.92c0.487-4.645-6.244-12.933-6.244-17.603
		C408.604,242.705,415.335,234.417,414.848,229.773z M211,236.921v-28.775v-6.491c0-32.854,26.555-49.486,45.946-50.928
		c13.448-0.983,26.054,0.877,26.054,0.877v31.78c0,0-13.367-0.164-18.557,0.315C259.86,184.182,254,189.354,254,200.093v14.937
		v2.889l-43,19.742V236.921z M254,344h-43v-59.562l43-19.78V344z M282.909,243.53l-29.785,14.072L211,277.333v-32.137l42.125-19.806
		l19.013-8.348c0,0,13.352-5.03,19.067,4.264C299.235,234.483,282.909,243.53,282.909,243.53z"/>
</g>
</svg>
