<?xml version="1.0" encoding="utf-8"?>
<!-- Generator: Adobe Illustrator 16.0.0, SVG Export Plug-In . SVG Version: 6.00 Build 0)  -->
<!DOCTYPE svg PUBLIC "-//W3C//DTD SVG 1.1//EN" "http://www.w3.org/Graphics/SVG/1.1/DTD/svg11.dtd">
<svg version="1.1" id="Layer_1" xmlns="http://www.w3.org/2000/svg" xmlns:xlink="http://www.w3.org/1999/xlink" x="0px" y="0px"
	 width="500px" height="500px" viewBox="0 0 500 500" style="enable-background:new 0 0 500 500;" xml:space="preserve">
<g>
	<path style="fill:#424143;" d="M326.815,49.462C308.242,34.57,284.24,34.57,284.24,34.57L68.037,274.6l-26.104,92.859
		l92.157-41.699L350.643,89.759C350.643,89.759,345.387,64.531,326.815,49.462z M71.891,277.404
		c2.455-0.876,15.069-7.884,22.253-3.153c7.184,4.906,12.266,17.696,12.266,17.696s15.065,1.576,21.198,7.708
		c8.587,8.584,4.905,19.798,3.155,24.002L81.88,344.333c-0.352-1.403-3.329-9.987-9.461-14.542
		c-4.558-3.505-14.018-2.804-15.942-2.454L71.891,277.404z"/>
	<g>
		<path style="fill-rule:evenodd;clip-rule:evenodd;fill:#EA3362;" d="M318.221,430.093c-1.467-1.278-2.928-2.555-4.561-3.978
			c-6.841,8.687-14.015,0.658-15.904-5.547c-0.471,1.524-0.904,3.061-1.413,4.572c-1.238,3.674-7.02,5.88-10.11,3.575
			c-2.71-2.026-1.985-6.317-2.599-8.994c-1.14,2.35-2.863,8.391-6.831,7.872c-2.378-0.309-3.54-2.063-3.935-4.163
			c-0.631-3.376-0.662-6.918-0.902-10.337c-0.229-0.013-0.465-0.023-0.696-0.033c-0.303,2.887,0.704,13.323-4.738,11.801
			c-11.786-3.313-36.328-15.919-38.856-28.898c-5.233,3.623-22.204-18.285-27.148-23.079c-5.13-4.968-8.149-9.579-14.206-14.433
			c-3.697-2.969-7.493-5.812-11.14-8.848c-3.481-2.912,0.248-8.013,4.332-6.599c3.61,1.25,15.11,9.247,18.333,8.151
			c9.836-3.368,9.513,6.632,8.775,12.411c6.701-9.272,19.061-12.984,30.437-10.736c-0.738,2.242-2.194,3.773-4.372,4.593
			c0.284,0.386,0.567,0.773,0.847,1.158c5.989-1.849,13.274-8.485,18.742-2.181c2.276-0.773,4.786-1.928,7.417-2.394
			c4.009-0.713,12.551,2.41,16.659,3.231c8.18,1.641-0.093,11.615-0.437,16.611c0.264,0.078,0.531,0.154,0.796,0.232
			c3.947-5.982,11.287-20.854,16.402-7.751c1.638-2.471,10.004-7.871,11.846-2.727c2.04,5.71,1.245,11.65,2.512,17.467
			c2.117-0.976,1.96-2.434,1.773-3.904c-0.569-4.497-1.128-8.995-1.741-13.942c9.741,0.472,8.958,1.478,12.965,9.503
			c-0.269-2.328-0.518-4.661-0.812-6.986c-0.398-3.162,0.381-4.472,3.468-5.321c2.697-0.926,5.191-0.536,7.479,1.169
			c2.229,1.904,3.2-0.875,5.39-1.381c5.007-1.151,8.352-4.618,12.389-1.559c1.271-1.622,3.455-3.922,5.019-0.819
			c0.507,1.002,1.164,1.93,2.153,2.687c-1.124-2.889-3.863-7.63,1.086-8.739c6.231-1.395,8.413,0.439,13.628,3.266
			c2.662-10.014,19.012-0.461,25.702-3.193c5.075-2.064,9.577-0.666,14.384,1.22c0.19,0.074,14.362-6.875,16.605-7.289
			c2.572-0.475,3.965,1.521,3.147,4.056c-1.814,5.59-9.215,10.097-13.527,13.71c-1.434,1.201-3.223,1.642-4.441-0.582
			c-1.951,2.203-0.884,4.948-3.177,7.434c-3.478,3.775-8.788,4.689-12.091,8.652c-6.906,8.291-14.882,15.387-23.278,22.222
			c-0.755-2.822-1.388-5.202-2.021-7.579c-0.1-0.001-0.207-0.003-0.307-0.004c-0.667,9.71-6.907,16.898-15.207,22.096
			c-0.346-1.574-0.65-2.946-1.009-4.551c-1.723,4.268-2.877,8.538-6.461,11.767c-2.855,2.579-4.153-0.253-5.356-2.444
			c-2.613,1.793-4.826,3.973-7.38,5.83c-2.373,1.729-3.834,1.291-4.426-1.553c-0.846-4.122-0.582-8.574-1.643-12.624
			c-0.385,5.873,0.814,15.427-6.289,17.88C321.733,430.093,319.976,430.093,318.221,430.093
			C316.754,428.814,319.976,430.093,318.221,430.093z"/>
		<path style="fill-rule:evenodd;clip-rule:evenodd;fill:#EA3362;" d="M290.092,268.371c4.725,1.689,6.438,5.716,7.726,10.687
			c1.669-8.729,7.714-1.438,10.954,2.937c4.539-6.971,5.334-8.785,12.988-11.019c5.918-1.716,11.324,1.711,6.054,6.299
			c3.748-3.398,6.111-10.604,10.458-2.949c2.717-0.584,12.64,0.108,13.223,4.034c0.525,3.526-4.129,6.187-3.07,9.809
			c0.996-0.932,1.753-2.038,2.268-3.314c2.631-4.718,4.452-5.421,9.432-3.508c4.612,1.775,3.751,4.529,6.809,6.158
			c3.282,1.75,6.95,1.544,10.643,3.707c5.918,3.467,15.631,7.958,20.521,12.856c8.657,8.676,25.555,15.972,33.595,27.504
			c1.282,1.836,2.916,3.99,1.705,6.22c-2.145,3.96-11.213,1.447-13.546-0.732c-4.326-4.06-14.753-0.458-20.2-2.568
			c0.525-1.668,1.275-3.226,2.246-4.673c-0.145-0.128-0.297-0.253-0.446-0.378c-2.092,1.632-4.067,3.399-5.927,5.301
			c-2.57,2.375-17.452,2.299-17.452-2.757c0-0.494-0.11-0.988-0.177-1.527c-6.14,0.84-7.091,4.032-14.05,1.642
			c-3.208-1.103-4.225-3.1-3.109-6.357c1.043-3.037,3.287-6.106,3.714-9.324c-4.039,3.371-5.117,10.931-10.093,12.643
			c-3.413,1.17-7.002,1.827-10.761,2.769c0-5.575,0-10.566,0-15.554c-0.11-0.042-0.228-0.088-0.336-0.133
			c-3.908,11.2-3.395,15.285-15.941,17.661c0-5.786,0-11.387,0-16.988c-0.089-0.02-0.18-0.038-0.272-0.06
			c-0.776,5.69-1.112,11.388-1.769,17.089c-0.527,4.625-5.698,4.488-6.576-0.042c-0.244-1.256-0.324-2.544-0.54-4.309
			c-0.609,1.881-9.871,19.281-10.641,9.37c-0.509-6.507-0.36-13.055-1.275-19.522c-0.283-0.02-0.567-0.035-0.852-0.054
			c-1.433,6.617-0.886,13.333-1.867,19.996c-1.176,7.832-19.475-3.583-20.779-8.142c-0.99-3.456-0.587-7.396-1.765-10.756
			c-3.364,16.172-6.19,1.593-10.316,6.067c-3.226,3.492-10.667-0.962-14.809-0.514c-9.738,1.053-9.209,2.198-13.222-7.971
			c-0.242,0.029-0.487,0.057-0.732,0.084c-0.158,2.724,2.016,11.132-1.658,12.323c-4.07,1.322-6.713-0.201-7.451-4.417
			c-0.358-2.046-0.655-4.12-2.806-5.918c0.168,3.558,0.191,7.441-1.041,10.853c-2.077,5.744-4.739,0.333-7.763,0.837
			c-2.303,0.384-1.782,5.144-4.967,1.729c-2.288-2.46-3.648-4.931-6.515-6.779c-1.619,3.076-1.258,5.438-1.258,8.869
			c-3.894,0-7.596,0.152-11.268-0.102c-2.399-0.168-3.481-5.089-6.031-2.572c-2.342,2.31-12.903,2.307-16.677,3.507
			c-1.868,0.596-3.467,0.398-4.348-1.652c0-0.73,0-1.463,0-2.195c5.489-8.86,13.669-8.306,19.863-15.561
			c4.372-5.12,2.295-5.065,9.685-6.802c0.702-0.165,7.943-1.119,8.752-3.352c1.833-5.054,14.226-13.125,19.352-14.596
			c4.827-1.303,5.972,1.941,10.192,6.754c0.223-0.131,0.441-0.262,0.666-0.39c-0.122-2.465-0.883-4.749-2.291-6.857
			c-1.339-2.861-1.175-4.061,1.398-5.765c3.104-2.058,17.615-7.088,18.39-10.209c1.362,1.609,2.399,2.842,3.611,4.273
			c-0.711-2.284-0.499-4.464,0.635-6.539c4.731-4.708,10.765-2.972,16.136-0.913c0.724-3.201,2.235-4.312,3.709-2.833
			C282.458,271.984,287.228,268.371,290.092,268.371C294.816,270.061,289.069,268.371,290.092,268.371z"/>
	</g>
</g>
</svg>
