<?xml version="1.0" encoding="utf-8"?>
<!-- Generator: Adobe Illustrator 16.0.0, SVG Export Plug-In . SVG Version: 6.00 Build 0)  -->
<!DOCTYPE svg PUBLIC "-//W3C//DTD SVG 1.1//EN" "http://www.w3.org/Graphics/SVG/1.1/DTD/svg11.dtd">
<svg version="1.1" id="Layer_1" xmlns="http://www.w3.org/2000/svg" xmlns:xlink="http://www.w3.org/1999/xlink" x="0px" y="0px"
	 width="500px" height="500px" viewBox="0 0 500 500" style="enable-background:new 0 0 500 500;" xml:space="preserve">
<path style="fill:#424143;" d="M115.88,239l287.387-97.543l-27.699-82.889l-293.027,99.2L109.603,239H107v173h310V239H115.88z
	 M343.125,89.375l29.585,42.716l-33.678,11.317l-29.588-42.715L343.125,89.375z M277.846,111.318l29.587,42.71l-33.681,11.318
	l-29.589-42.709L277.846,111.318z M212.567,133.257l29.587,42.712l-33.68,11.318l-29.583-42.708L212.567,133.257z M147.287,155.196
	l29.587,42.717l-33.678,11.316l-29.584-42.712L147.287,155.196z M171.081,310h-35.528l14.436-44h35.531L171.081,310z M239.946,310
	h-35.528l14.438-44h35.529L239.946,310z M308.816,310h-35.532l14.434-44h35.534L308.816,310z M377.682,310H342.15l14.44-44h35.53
	L377.682,310z"/>
</svg>
