<?xml version="1.0" encoding="utf-8"?>
<!-- Generator: Adobe Illustrator 16.0.0, SVG Export Plug-In . SVG Version: 6.00 Build 0)  -->
<!DOCTYPE svg PUBLIC "-//W3C//DTD SVG 1.1//EN" "http://www.w3.org/Graphics/SVG/1.1/DTD/svg11.dtd">
<svg version="1.1" id="Layer_1" xmlns="http://www.w3.org/2000/svg" xmlns:xlink="http://www.w3.org/1999/xlink" x="0px" y="0px"
	 width="500px" height="500px" viewBox="0 0 500 500" style="enable-background:new 0 0 500 500;" xml:space="preserve">
<g>
	<path style="fill:none;" d="M320.027,209.586c0-38.668-31.359-70.026-70.025-70.026c-38.672,0-70.031,31.358-70.031,70.026
		c0,38.86,31.359,70.028,70.031,70.028C288.668,279.614,320.027,248.446,320.027,209.586z M250.002,250.757
		c-22.51,0-40.982-18.662-40.982-41.171c0-22.316,18.473-40.977,40.982-40.977c22.508,0,40.975,18.66,40.975,40.977
		C290.977,232.095,272.51,250.757,250.002,250.757z"/>
	<path style="fill:#EA3362;" d="M250.002,168.609c-22.51,0-40.982,18.66-40.982,40.977c0,22.509,18.473,41.171,40.982,41.171
		c22.508,0,40.975-18.662,40.975-41.171C290.977,187.27,272.51,168.609,250.002,168.609z"/>
	<path style="fill:#424143;" d="M395.637,209.586c0-80.417-65.025-145.828-145.635-145.828s-145.639,65.411-145.639,145.828
		c0,63.489,40.4,117.548,96.77,137.556l-92.922,63.101h283.576l-92.92-63.101C355.232,327.134,395.637,273.075,395.637,209.586z
		 M179.971,209.586c0-38.668,31.359-70.026,70.031-70.026c38.666,0,70.025,31.358,70.025,70.026
		c0,38.86-31.359,70.028-70.025,70.028C211.33,279.614,179.971,248.446,179.971,209.586z"/>
</g>
</svg>
