<?xml version="1.0" encoding="utf-8"?>
<!-- Generator: Adobe Illustrator 18.0.0, SVG Export Plug-In . SVG Version: 6.00 Build 0)  -->
<!DOCTYPE svg PUBLIC "-//W3C//DTD SVG 1.1//EN" "http://www.w3.org/Graphics/SVG/1.1/DTD/svg11.dtd">
<svg version="1.1" id="Layer_1" xmlns="http://www.w3.org/2000/svg" xmlns:xlink="http://www.w3.org/1999/xlink" x="0px" y="0px"
	 viewBox="0 0 150 40" enable-background="new 0 0 150 40" xml:space="preserve">
<g>
	<path fill="#FFFFFF" d="M19.4,13.4c0-2,0.7-3,2.1-3c1.5,0,2.1,1,2.1,3v7.4c0,3.3,1.3,5,3.8,5s3.8-1.7,3.8-5v-7.4c0-2,0.7-3,2.1-3
		c1.5,0,2.1,1,2.1,3v7.9c0,5.6-3.1,8.6-8,8.6s-8-3-8-8.6V13.4z"/>
	<path fill="#FFFFFF" d="M67.1,10.4c1,0,1.9,0.9,1.9,2c0,0.7-0.4,1.4-1.1,2.1l-4.6,4.8l5.7,6.2c0.7,0.8,1.1,1.5,1.1,2.1
		c0,1.1-1,2-2,2c-0.9,0-1.5-0.6-2.3-1.5L59.5,21v5.5c0,2-0.7,3-2.1,3s-2.1-1-2.1-3V13.4c0-2,0.7-3,2.1-3s2.1,1,2.1,3V18l5.4-6.1
		C65.7,10.9,66.3,10.4,67.1,10.4z"/>
	<path fill="#FFFFFF" d="M72.4,26.6V13.6c0-2.1,0.6-3,3-3h3.5c3.8,0,5.9,1.8,5.9,4.7c0,1.8-0.7,3-2.3,3.7c2.5,0.6,3.8,2.3,3.8,4.7
		c0,3.4-2.3,5.6-6.7,5.6h-4.2C73,29.3,72.4,28.7,72.4,26.6z M78.4,17.9c1.3,0,2.1-0.8,2.1-1.8c0-1.1-0.8-1.8-2.2-1.8h-1.7v3.7H78.4z
		 M78.8,25.6c1.9,0,2.9-0.8,2.9-2.1c0-1.5-1-2.1-3-2.1h-2.1v4.2H78.8z"/>
	<path fill="#FFFFFF" d="M141.7,10.4c1,0,1.9,0.9,1.9,2c0,0.7-0.4,1.4-1.1,2.1l-4.6,4.8l5.7,6.2c0.7,0.8,1.1,1.5,1.1,2.1
		c0,1.1-1,2-2,2c-0.9,0-1.5-0.6-2.3-1.5L134,21v5.5c0,2-0.7,3-2.1,3c-1.5,0-2.1-1-2.1-3V13.4c0-2,0.7-3,2.1-3c1.5,0,2.1,1,2.1,3V18
		l5.4-6.1C140.3,10.9,140.9,10.4,141.7,10.4z"/>
	<path fill="#FFFFFF" d="M97.5,30.4c-5.5,0-10-4.5-10-10s4.5-10,10-10s10,4.5,10,10S103,30.4,97.5,30.4z M97.5,14.4
		c-3.3,0-6,2.7-6,6s2.7,6,6,6s6-2.7,6-6S100.8,14.4,97.5,14.4z"/>
	<path fill="#FFFFFF" d="M118.5,30.4c-5.5,0-10-4.5-10-10s4.5-10,10-10s10,4.5,10,10S124,30.4,118.5,30.4z M118.5,14.4
		c-3.3,0-6,2.7-6,6s2.7,6,6,6s6-2.7,6-6S121.8,14.4,118.5,14.4z"/>
	<path fill="#FFFFFF" d="M7.3,29.9c-1.1,0-2-0.9-2-2v-2.6c0-4.5,4.3-7.2,8.5-7.2h0.8c1.1,0,2,0.9,2,2s-0.9,2-2,2h-0.8
		c-2.2,0-4.5,1.2-4.5,3.2v2.6C9.3,29,8.4,29.9,7.3,29.9z"/>
	<path fill="#FFFFFF" d="M15,10.3H8.4c-2.4,0-3.1,1.2-3.1,3.3c0,0,0,1.8,0,2.7c0,1.2,0.9,2.3,2.1,2.3s2.1-0.9,2.1-2.1
		c0-0.8,0-1.2,0-1.2H15c2,0,3-1.1,3-2.5C18,11.5,17,10.3,15,10.3z"/>
	<path fill="#FFFFFF" d="M37.4,19.7c0-6,4.1-9.9,9.2-9.9c3.3,0,5.6,1.5,5.6,3c0,1-0.8,1.9-1.8,1.9c-1,0-2.2-0.7-3.8-0.7
		c-2.7,0-4.6,2.2-4.6,5.8c0,3.5,1.9,5.7,4.7,5.7c1.8,0,3-1,4-1c0.9,0,1.7,0.9,1.7,1.9c0,1.7-2.4,3.2-5.9,3.2
		C41.1,29.6,37.4,25.7,37.4,19.7z"/>
</g>
</svg>
