<?xml version="1.0" encoding="utf-8"?>
<!-- Generator: Adobe Illustrator 18.0.0, SVG Export Plug-In . SVG Version: 6.00 Build 0)  -->
<!DOCTYPE svg PUBLIC "-//W3C//DTD SVG 1.1//EN" "http://www.w3.org/Graphics/SVG/1.1/DTD/svg11.dtd">
<svg version="1.1" id="Layer_1" xmlns="http://www.w3.org/2000/svg" xmlns:xlink="http://www.w3.org/1999/xlink" x="0px" y="0px"
	 viewBox="0 0 40 40" enable-background="new 0 0 40 40" xml:space="preserve">
<g>
	<path fill="#FFFFFF" d="M13.1,34.3c-1.7,0-3-1.3-3-3v-3.8c0-6.7,6.5-10.8,12.8-10.8h1.2c1.7,0,3,1.3,3,3c0,1.7-1.3,3-3,3H23
		c-3.3,0-6.8,1.8-6.8,4.8v3.8C16.1,32.9,14.8,34.3,13.1,34.3z"/>
	<path fill="#FFFFFF" d="M25.3,6h-9.9c-3.6,0-4.6,1.2-4.6,4.4c0,0,0,2.4,0,3.8c0,1.8,1.8,3.2,3.6,3.2s3.6-1.5,3.6-3.3
		c0-1.3,0-1.1,0-1.1h7.3c3,0,4.6-1.5,4.6-3.5C29.8,7.5,28.3,6,25.3,6z"/>
</g>
</svg>
