<?xml version="1.0" encoding="utf-8"?>
<!-- Generator: Adobe Illustrator 18.0.0, SVG Export Plug-In . SVG Version: 6.00 Build 0)  -->
<!DOCTYPE svg PUBLIC "-//W3C//DTD SVG 1.1//EN" "http://www.w3.org/Graphics/SVG/1.1/DTD/svg11.dtd">
<svg version="1.1" xmlns="http://www.w3.org/2000/svg" xmlns:xlink="http://www.w3.org/1999/xlink" x="0px" y="0px"
	 viewBox="0 0 200 50" enable-background="new 0 0 200 50" xml:space="preserve">
<g id="fuckbook">
	<g>
		<path fill="#EA3362" d="M24,16.1c0-2.8,0.9-4.1,2.9-4.1s2.9,1.4,2.9,4.1v10.2c0,4.5,1.8,6.8,5.2,6.8s5.2-2.3,5.2-6.8V16.1
			c0-2.8,0.9-4.1,2.9-4.1c2,0,2.9,1.4,2.9,4.1v10.8c0,7.6-4.3,11.8-11,11.8s-11-4.1-11-11.8V16.1z"/>
		<path fill="#EA3362" d="M89.2,12c1.4,0,2.6,1.2,2.6,2.7c0,0.9-0.5,1.9-1.5,2.9l-6.3,6.6l7.8,8.5c1,1.1,1.5,2.1,1.5,2.9
			c0,1.5-1.4,2.7-2.7,2.7c-1.3,0-2.1-0.9-3.1-2.1l-8.8-9.7v7.6c0,2.8-0.9,4.1-2.9,4.1s-2.9-1.4-2.9-4.1v-18c0-2.8,0.9-4.1,2.9-4.1
			s2.9,1.4,2.9,4.1v6.3l7.4-8.4C87.3,12.8,88.2,12,89.2,12z"/>
		<path fill="#EA3362" d="M96.4,34.2V16.4c0-2.8,0.8-4.1,4-4.1h4.8c5.3,0,8,2.5,8,6.4c0,2.5-1,4.1-3.2,5c3.4,0.8,5.2,3.1,5.2,6.5
			c0,4.7-3.2,7.7-9.1,7.7h-5.8C97.3,37.9,96.4,37,96.4,34.2z M104.7,22.3c1.8,0,2.9-1,2.9-2.5c0-1.6-1.2-2.5-3-2.5h-2.4v5H104.7z
			 M105.2,32.9c2.6,0,4-1,4-2.9c0-2-1.4-2.9-4.1-2.9h-2.8v5.8H105.2z"/>
		<path fill="#EA3362" d="M191.2,12c1.4,0,2.6,1.2,2.6,2.7c0,0.9-0.5,1.9-1.5,2.9l-6.3,6.6l7.8,8.5c1,1.1,1.5,2.1,1.5,2.9
			c0,1.5-1.4,2.7-2.7,2.7c-1.3,0-2.1-0.9-3.1-2.1l-8.8-9.7v7.6c0,2.8-0.9,4.1-2.9,4.1c-2,0-2.9-1.4-2.9-4.1v-18
			c0-2.8,0.9-4.1,2.9-4.1c2,0,2.9,1.4,2.9,4.1v6.3l7.4-8.4C189.3,12.8,190.2,12,191.2,12z"/>
		<path fill="#EA3362" d="M130.8,38.8c-7.5,0-13.6-6.1-13.6-13.6s6.1-13.6,13.6-13.6c7.5,0,13.6,6.1,13.6,13.6
			S138.3,38.8,130.8,38.8z M130.8,17c-4.5,0-8.2,3.7-8.2,8.2s3.7,8.2,8.2,8.2s8.2-3.7,8.2-8.2S135.3,17,130.8,17z"/>
		<path fill="#EA3362" d="M159.5,38.8c-7.5,0-13.6-6.1-13.6-13.6s6.1-13.6,13.6-13.6c7.5,0,13.6,6.1,13.6,13.6S167,38.8,159.5,38.8z
			 M159.5,17c-4.5,0-8.2,3.7-8.2,8.2s3.7,8.2,8.2,8.2s8.2-3.7,8.2-8.2S164,17,159.5,17z"/>
		<path fill="#EA3362" d="M7.4,38.6c-1.5,0-2.7-1.2-2.7-2.7v-3.5c0-6.1,5.9-9.8,11.7-9.8h1.1c1.5,0,2.7,1.2,2.7,2.7
			c0,1.5-1.2,2.7-2.7,2.7h-1.1c-3,0-6.2,1.7-6.2,4.4v3.5C10.1,37.4,8.9,38.6,7.4,38.6z"/>
		<path fill="#EA3362" d="M17.9,12h-9c-3.2,0-4.2,1.4-4.2,4.2c0,0,0,2.3,0,3.6c0,1.6,1.5,3,3.2,3s3.2-1.3,3.2-2.9c0-1.2,0-1.9,0-1.9
			h6.9c2.8,0,4.1-1.1,4.1-3C22.1,13.2,20.7,12,17.9,12z"/>
		<path fill="#EA3362" d="M48.5,24.8c0-8.2,5.6-13.6,12.6-13.6c4.5,0,7.7,2.1,7.7,4.1c0,1.4-1.1,2.6-2.5,2.6c-1.3,0-3-1-5.2-1
			c-3.8,0-6.3,3-6.3,8c0,4.8,2.6,7.8,6.5,7.8c2.5,0,4.1-1.3,5.4-1.3c1.2,0,2.3,1.2,2.3,2.6c0,2.3-3.2,4.4-8.1,4.4
			C53.6,38.3,48.5,33,48.5,24.8z"/>
	</g>
</g>
</svg>
